<?xml version="1.0" encoding="UTF-8" standalone="no"?>
<svg
   version="1.1"
   style="display: block;"
   viewBox="0 0 2048 2048"
   width="1024"
   height="1024"
   id="svg18"
   sodipodi:docname="colap-edited.svg"
   inkscape:version="1.2.2 (b0a8486541, 2022-12-01)"
   inkscape:export-filename="colap-edited.png"
   inkscape:export-xdpi="96"
   inkscape:export-ydpi="96"
   xmlns:inkscape="http://www.inkscape.org/namespaces/inkscape"
   xmlns:sodipodi="http://sodipodi.sourceforge.net/DTD/sodipodi-0.dtd"
   xmlns="http://www.w3.org/2000/svg"
   xmlns:svg="http://www.w3.org/2000/svg">
  <defs
     id="defs22" />
  <sodipodi:namedview
     id="namedview20"
     pagecolor="#ffffff"
     bordercolor="#666666"
     borderopacity="1.0"
     inkscape:showpageshadow="2"
     inkscape:pageopacity="0.0"
     inkscape:pagecheckerboard="0"
     inkscape:deskcolor="#d1d1d1"
     showgrid="false"
     showguides="true"
     inkscape:zoom="0.72558594"
     inkscape:cx="106.81023"
     inkscape:cy="511.3109"
     inkscape:window-width="3840"
     inkscape:window-height="2043"
     inkscape:window-x="0"
     inkscape:window-y="0"
     inkscape:window-maximized="1"
     inkscape:current-layer="svg18">
    <sodipodi:guide
       position="-446.53567,840.69987"
       orientation="0,-1"
       id="guide182"
       inkscape:locked="false" />
  </sodipodi:namedview>
  <path
     transform="translate(0,0)"
     fill="rgb(0,181,168)"
     d="M 645.724 769.965 C 658.97 769.777 672.216 769.682 685.463 769.681 C 693.98 779.377 700.333 795.283 705.587 807.132 C 712.704 808.746 719.774 810.56 726.789 812.573 C 734.579 801.795 745.875 793.44 755.904 784.811 C 764.457 787.159 782.126 794.685 787.187 801.898 C 793.301 810.612 786.479 832.475 784.682 842.407 C 790.424 848.055 796.902 852.998 802.749 858.586 C 813.702 855.507 825.353 850.365 836.564 848.851 C 839.177 848.498 840.47 848.556 842.604 850.212 C 850.444 856.29 863.669 873.567 865.185 883.339 C 861.246 894.365 850.634 904.521 843.159 913.445 C 845.76 921.093 848.666 928.58 851.665 936.079 C 862.322 938.476 885.875 939.517 893.758 946.041 C 896.43 950.437 899.755 972.299 898.435 977.503 C 895.132 990.529 872.692 1000.06 861.619 1006.38 L 859.945 1026.55 C 867.738 1032.67 895.048 1049.24 897.657 1057.36 C 897.357 1067.07 885.756 1090.53 878.535 1097.09 C 876.873 1098.6 874.704 1099.59 872.426 1099.59 C 867.783 1099.61 862.745 1098.04 858.116 1097.42 C 850.574 1096.41 843.019 1096.06 835.42 1095.82 C 832.407 1102.25 828.695 1108.42 825.21 1114.62 C 830.403 1127.4 836.957 1139.76 841.28 1152.86 C 832.567 1164.24 818.387 1175.76 806.791 1184 C 794.117 1178.23 782.047 1171.28 769.882 1164.53 C 762.182 1168.77 754.444 1172.75 746.487 1176.48 C 745.488 1190.11 745.882 1206.99 741.382 1219.84 C 733.042 1222.18 715.552 1230.55 707.472 1228.01 C 700.287 1225.74 697.04 1217.66 693.58 1211.64 L 682.441 1191.92 C 672.622 1192 662.859 1191.99 653.044 1191.55 C 646.023 1203.78 639.219 1217.36 629.952 1228.02 C 620.77 1225.28 607.322 1222.23 599.644 1216.59 C 590.837 1210.12 592.56 1183.74 590.699 1172.9 C 582.099 1169.4 573.868 1164.66 565.895 1159.93 C 557.081 1164.49 539.967 1176.94 530.612 1177.12 C 520.838 1177.3 504.402 1156.01 497.759 1149.12 C 501.543 1135.77 508.47 1123.42 514.132 1110.79 C 511.264 1106.09 508.696 1101.17 506.022 1096.36 C 491.577 1095.54 476.233 1095.16 462.034 1092.55 C 458.26 1084.19 448.15 1062.13 451.254 1053.49 C 454.495 1044.47 474.061 1037.23 482.593 1032.9 C 481.13 1025.15 480.4 1017.31 479.572 1009.48 C 469.543 1005.17 459.135 1001.19 449.339 996.383 C 444.495 994.007 440.128 990.979 438.544 985.555 C 436.706 979.256 440.295 953.471 443.279 948.064 C 447.82 943.888 477.346 946.805 485.361 947.099 C 488.92 936.683 492.611 926.482 496.962 916.361 C 492.981 911.107 489.246 905.925 485.906 900.237 C 494.136 882.538 506.514 862.815 519.007 847.805 C 525.234 850.98 531.31 854.582 537.337 858.123 C 543.159 852.073 549.868 846.968 556.835 842.318 C 554.523 833.14 546.509 812.583 550.823 804.07 C 555.127 795.578 572.106 790.666 580.655 787.869 C 592.227 795.571 602.386 805.457 612.763 814.677 C 620.308 811.677 628.32 809.587 636.059 807.103 C 639.385 795.546 639.542 780.189 645.724 769.965 z M 677.409 1128.17 C 749.02 1124.41 804.075 1063.39 800.48 991.769 C 796.885 920.148 735.998 864.951 664.37 868.378 C 592.504 871.817 537.083 932.95 540.69 1004.81 C 544.297 1076.67 605.56 1131.94 677.409 1128.17 z"
     id="path2"
     style="fill:#0cd6d6;fill-opacity:1" />
  <path
     fill="#00b5a8"
     d="m 1321.678,816.44091 c 17.9,0.564 91.46,-2.594 102.05,1.329 10.87,17.972 18.05,44.788 25.46,65.088 l 38.42,103.688 52.46,141.44899 c 9.06,24.62 19.35,49.44 26.49,74.68 -15.64,2.32 -32.17,1.33 -47.98,1.36 -15.78,0.03 -31.92,0.72 -47.65,-0.52 -5.56,-9.69 -8.8,-21.94 -12.55,-32.43 -5.01,-14.04 -10.84,-28.21 -14.57,-42.64 -6.97,0.27 -13.98,0.93 -20.94,1.42 -39.7,0.5 -79.9,1.51 -119.47,-1.7 -3.63,12.16 -20.49,67.3 -27.24,73.83 -13.47,4.49 -81.78,1.8 -98.48,1.02 6.58,-24.75 17.47,-49.53 26.36,-73.59 l 51.72,-139.33499 43.17,-115.927 c 5.16,-13.922 15.04,-46.53 22.75,-57.722 z m 7.13,236.29399 c 14.92,-0.32 29.83,-0.43 44.75,-0.32 14.62,-0.04 29.32,0.24 43.93,-0.17 -6.2,-16.86 -41.78,-123.95699 -45.21,-127.38299 -15.38,42.043 -30.22,85.09299 -43.47,127.87299 z"
     id="path4"
     style="fill:#0cd6d6;fill-opacity:1" />
  <path
     transform="translate(0,0)"
     fill="rgb(0,181,168)"
     d="M 374.172 805.427 C 415.988 801.959 461.632 813.537 495.657 838.207 C 489.742 849.742 481.596 860.125 475.408 871.529 C 468.056 885.076 462.604 899.583 455.212 913.136 C 421.06 899.378 389.629 889.764 353.399 902.721 C 327.496 911.903 306.437 931.22 295.057 956.236 C 281.569 985.219 279.371 1020.13 290.644 1050.17 C 300.266 1075.81 319.188 1097.35 344.334 1108.65 C 382.668 1125.88 412.513 1116.14 449.52 1102.13 C 461.55 1120.63 471.091 1142.24 486.753 1158.14 C 490.223 1163.25 494.307 1168.03 497.935 1173.05 C 472.836 1193.14 435.916 1203.67 404.252 1205.83 C 350.193 1209.52 298.395 1196.31 256.983 1160.14 C 217.474 1125.35 193.421 1076.28 190.124 1023.74 C 186.665 968.978 199.08 911.264 236.543 869.48 C 273.652 828.089 318.799 808.636 374.172 805.427 z"
     id="path6"
     style="fill:#0cd6d6;fill-opacity:1" />
  <path
     fill="#00b5a8"
     d="m 912.62303,816.62291 c 29.236,0.407 58.525,-0.208 87.77497,0.079 2.22,24.223 0.5,50.08 0.49,74.497 l -0.06,143.72599 c -0.01,26.71 -1.02997,53.9 0.52,80.55 33.19,0.64 66.48,0.32 99.68,0.18 17.17,-0.08 35.37,-1.41 52.41,0.53 0.67,14.91 0.27,30 0.3,44.93 0.02,13.85 0.62,27.97 -0.62,41.76 -15.19,2.13 -31.21,1.12 -46.53,1.1 l -77.38,-0.08 -72.38197,0.12 c -15.189,0.02 -30.904,0.89 -45.985,-1.05 -1.054,-20.48 -0.436,-41.22 -0.435,-61.74 l 0.038,-107.23 V 899.77291 c -0.004,-24.442 -0.53,-49.034 0.211,-73.46 0.108,-3.572 0.162,-6.494 1.968,-9.69 z"
     id="path8"
     style="fill:#0cd6d6;fill-opacity:1" />
  <path
     fill="#c8370b"
     d="m 1673.568,756.46091 c 55.79,-6.979 106.64,32.668 113.49,88.475 6.84,55.807 -32.94,106.564 -88.76,113.267 -55.63,6.68 -106.17,-32.924 -112.99,-88.536 -6.81,-55.612 32.66,-106.251 88.26,-113.206 z"
     id="path10" />
  <path
     fill="#f7f4ee"
     d="m 1688.978,792.65891 c 13.89,-0.369 27.98,1.351 39.14,10.424 8.48,6.87 13.84,16.86 14.88,27.722 1.17,11.692 -2.07,23.153 -9.59,32.24 -13.83,16.712 -33.46,19.588 -53.66,21.303 -0.11,7.483 -0.85,15.697 1.45,22.874 2.07,0.777 1.28,0.564 3.09,0.992 2.68,0.635 4.57,1.018 6.82,2.748 2,3.61 1.01,9.123 0.83,13.175 -13.36,-0.121 -26.74,0.028 -40.1,0.052 l -0.16,-125.992 c 12.67,-3.388 24.19,-4.974 37.3,-5.538 z"
     id="path12" />
  <path
     fill="#c8370b"
     d="m 1687.608,805.31691 c 3.17,-0.161 6.59,-0.339 9.72,0.14 3.98,0.608 7.35,3.379 9.65,6.559 5.91,8.195 5.28,23.668 3.63,33.373 -1.67,9.84 -4.91,15.179 -12.89,20.977 -6.02,2.375 -11.59,3.484 -17.95,4.427 -0.6,-18.078 -2.83,-42.816 0.34,-60.254 1.9,-2.851 4.52,-3.805 7.5,-5.222 z"
     id="path14" />
  <path
     fill="#c8370b"
     d="m 1684.848,1018.3949 c 11.41,-0.43 22.22,-0.89 33.14,3.09 15.49,5.65 27.31,18.36 34,33.18 15.38,34.04 10.15,78.88 -2.6,112.81 -14.74,39.24 -48.11,85.66 -87.64,102.76 -6.5,2.81 -10.26,3.67 -16.9,1.14 -2.45,-1.6 -5.1,-3.21 -6.98,-5.49 -4.27,-5.2 -5.63,-13.16 -4.77,-19.68 1.42,-10.7 6.62,-14.57 14.6,-20.55 30.93,-23.17 47.33,-51.49 52.95,-89.37 -14.89,0.87 -29.04,0.65 -42.49,-6.59 -12.25,-6.44 -21.25,-17.7 -24.84,-31.06 -4.39,-17.02 -0.95,-37.45 8.13,-52.39 10.41,-17.13 24.54,-23.31 43.4,-27.85 z"
     id="path16" />
</svg>
